<svg id="Skull_base" data-name="Skull base" xmlns="http://www.w3.org/2000/svg" viewBox="0 0 2852.5 2660"><defs><style>.cls-1,.cls-2{fill:#e6e6e6;}.cls-1{stroke:#000;stroke-linejoin:round;stroke-width:0.5px;}.cls-2{stroke:#ed2024;stroke-miterlimit:10;stroke-width:0.25px;}</style></defs><g id="left_antler" data-name="left antler"><path class="cls-1" d="M209.84,922.48c1,3,2.41,5.89,2.52,9.08.08,2.3-2.09,3.62-3.45,5.26q-2.37,2.86-4.77,5.71-4.65,5.52-9.43,11c-6.46,7.33-13.15,14.47-20.2,21.24a264.86,264.86,0,0,1-22.18,19.37q-3,2.31-6.1,4.47c-1.45,1-2.59,2.76-4.28,3.39a2.31,2.31,0,0,1-1.56.09,2.63,2.63,0,0,1-1.52-1.63c-.64-1.57-1.12-3.25-1.82-4.8-1.47-3.23-3.34-6.2-3.31-9.83s1.1-7.07,1.54-10.62q1-8.58,2.12-17.17,2.15-17,4.47-33.89,4.57-32.82,10.06-65.51c.09-.56.19-1.13.29-1.69l.06-.4c2.41-14.17,4.93-28.33,7.69-42.45,1.34-6.81,2.95-13.56,4.51-20.32.8-3.45,1.58-6.9,2.31-10.37.66-3.11.86-6.73,2-9.69,2.48,5,3.16,10.75,4.37,16.13q1.92,8.54,4.18,17c3.09,11.6,6.28,23.18,9.49,34.75q7.08,25.49,14.34,50.91c2,7,4.25,13.84,6.16,20.82C208.13,916.34,208.84,919.45,209.84,922.48Z"/><path class="cls-1" d="M69.2,735.54s-7.46-97-5.6-163.18c0,0,6.06-42,16.79-88.59,0,0,2.94-27,14-61.07,0,0,7.37-27,39.59-89.05,0,0,1.91-6.06,26.15-34.5l13.52-9.33,17.25,2.33s7.46,0,4.67,27.51c0,0-11.66,32.64-24.25,95.11,0,0-7.46,27.51-16.78,106.77,0,0-4.66,29.37-6.53,65.74l-.46,28S100.9,669.8,69.2,735.54Z"/></g><g id="right_antler" data-name="right antler"><path class="cls-1" d="M2621.89,250.62c-3.95-28.05,3.69-28.35,3.69-28.35l17.57-3.06,14.21,9c25.94,28.16,28.14,34.29,28.14,34.29,35.42,62.21,44,89.6,44,89.6,12.64,34.41,16.72,62,16.72,62,12.82,47.31,20.68,90,20.68,90,4.52,67.71.7,167.28.7,167.28-35.05-66-84.93-120.06-84.93-120.06l-1.58-28.62c-3.34-37.15-9.27-67-9.27-67C2659.18,374.9,2650.46,347,2650.46,347,2635.11,283.57,2621.89,250.62,2621.89,250.62Z"/><path class="cls-1" d="M2628.8,877.7c0-3.26,1.33-6.31,2.22-9.4s1.51-6.34,2.25-9.52c1.68-7.23,3.73-14.35,5.48-21.56q6.42-26.33,12.67-52.68c2.84-12,5.65-23.95,8.35-35.95q2-8.73,3.61-17.55c1-5.56,1.5-11.48,3.85-16.68,1.23,3,1.58,6.68,2.38,9.84.88,3.52,1.82,7,2.77,10.53,1.87,6.86,3.78,13.7,5.42,20.62,3.38,14.34,6.52,28.74,9.54,43.16l.09.4.36,1.72q6.93,33.24,12.87,66.66,3.09,17.25,5.91,34.52,1.45,8.75,2.86,17.5c.58,3.62,1.81,7.14,2,10.81s-1.62,6.83-3,10.2c-.65,1.6-1.08,3.35-1.67,5a2.69,2.69,0,0,1-1.5,1.73,2.35,2.35,0,0,1-1.59,0c-1.76-.59-3-2.33-4.52-3.3-2.18-1.4-4.31-2.84-6.42-4.33a274,274,0,0,1-23.47-19c-7.49-6.65-14.61-13.7-21.52-20.95-3.41-3.57-6.76-7.19-10.09-10.84q-2.57-2.82-5.1-5.66C2631.08,881.33,2628.81,880.06,2628.8,877.7Z"/></g><g id="skull"><path class="cls-2" d="M2817,945.42h0l-1.69-28.88c0-.68,0-1.31-.12-1.93v-.06l-.21-1.27-8.07-48.73v0c-2.9-18.75-5.47-32.2-5.47-32.2-12.62-67.27-36.4-126.23-36.4-126.23-36.44-99-101.23-152.41-101.23-152.41-17.6-8.16-36-15.41-55.05-19.32-3.33-.68-9.06-2.67-12.49-1.87-3,.71-2-.49-2.77,3.49-.91,4.77.43,11.62,3.24,15.54,3.05,4.25,7.27,7.53,10.44,11.67q6.07,7.95,12,16c13.39,18.45,27.35,37.66,36.74,58.52,4.84,10.75,6.5,22.52,9.3,33.88,6.14,24.92,15,49.1,20.94,74.06,6.82,28.44,12.62,57.12,17.75,85.91,5.45,30.56,10.39,61.3,14,92.14l.07,8.12a64.71,64.71,0,0,1-.19,8.05l-1.59,11.38c-.21,1-.44,2.06-.7,3.13-.85,2.66-1.7,5.33-2.54,8-2-.7-6.69-2.73-7-2.86a139.54,139.54,0,0,1-23.63-14.84c-14-10.51-26.79-22.54-38.93-35.1-19.35-20-37.06-41.58-53.82-63.78Q2581.38,835,2573.49,824c-5.72-8-13.21-16.14-15.84-26.11-2.3-8.76-7.14-21.58-18.75-21.13-3.54.14-14.39-1.23-16.22,2-3.33,5.82-2.78,14.89-2.41,21.24.85,14.44,4.66,28.28,8.24,42.21,0,0,17.43,67.68,65.91,135.13,0,0,61,69.35,85.64,89,0,0-13.35-.4-24.63-8.71L2635.79,1038l-9.09-9.06c-1.27-1.26-2.5-2.56-3.73-3.85-.2-.2-.39-.41-.59-.62a3,3,0,0,0-.38-.64c-1.15-1.55-3.95-3.52-4.75-4.28-3.35-3.16-6.6-6.44-9.79-9.77-6.8-7.08-13.36-14.4-19.8-21.81,0,0-4.1,20.27-38.76,45l-9.45,6.34a111.58,111.58,0,0,1-14.75,6.49c-7.58,1.26-46.12,7.33-98.29,9.34a214.89,214.89,0,0,1-40.26-2.75s-6-6.58-6.46-18.75c0,0-2.42-16.4-1.21-31.51l8.69-40.13.23-1.06,2-9.42-.1,0c3-14.56,8.27-41.67,11.59-64.59,0,0,5.91-32.86,11.83-84,0,0,4.24-48.2,5.6-87.33,0,0,2.07-48.48-2.06-109.27,0,0-2.49-46.15-8.82-107.93,0,0-6.22-50-13.51-90.18l-14.1-68.29L2368,293l-13.45-51.47-11.83-37.19L2325,170.63l-9-19-27.21-54.88s-5.09-11.28-20.29-33.63a202.49,202.49,0,0,0-21.26-21.41l-12.68-12.78s-12.45-6.69-20.23,5.44c0,0-4,6.61-1.7,20.86L2233.36,110s7,15.5,14.61,44.25l16.11,55.3,15.49,67.16s4,21.36,11.8,36.48l12,68.73a1029.79,1029.79,0,0,1,13.77,106.3s2.55,47.58,2.28,115c0,0,1.47,47.63-1.51,109.76,0,0,2.38,52.61-9.84,107.57,0,0-10.94,102.52-55.93,184.85q-1.53,2.83-3.14,5.64s-13.61,45-91.52,69.85c0,0-4.59,1.06-13.3,2.71l-.13-.49s-20.53,2-48.7,7.75c0,0-5.27-6.67-7.67-12.4l-1.93-9.55s2.73-54.46-.26-110.34c0,0-1.51-30.56-9.25-72.58a235.19,235.19,0,0,0-16.33-41s-4.81-11-22.51-21.92c0,0-11.46-1.4-11.38,34.42,0,0,2,31.52-6.48,88.38,0,0-7.52,52.08-17,88.41,0,0,.52,16.71-29.47,62.16,0,0-3.46,6.54-10.11,16.38a98.6,98.6,0,0,1-14.11,6l-14.73,2.48-.29,0-.22-.73s-20.45,2.7-48.39,9.52c0,0-5.51-6.48-8.12-12.12l-2.28-9.47s.77-54.52-4.24-110.26c0,0-2.61-30.49-11.86-72.2a235.24,235.24,0,0,0-17.81-40.42s-5.2-10.79-23.28-21.09c0,0-11.51-1-10.13,34.8,0,0,3.12,31.43-3.28,88.56,0,0-5.64,52.32-13.79,89,0,0,1.12,16.69-27.2,63.19,0,0-17.71,36.53-50.92,67.93l-25.63,26.43-3.54,3.65-90.83,93.68c-18.25,12.46-27.74,25.14-32.57,33.94-134.8-184.28-292.06-5.42-292.06-5.42.53.68,1,1.38,1.49,2.09-5.67-7.69-14.78-17.11-29.24-26.19l-92.11-88-3.59-3.42-26-24.82c-33.57-29.38-52.22-64.34-52.22-64.34-29.37-44.3-28.9-60.61-28.9-60.61-9.33-35.44-16.79-86.26-16.79-86.26-8.39-55.48-6.52-86.25-6.52-86.25,0-35-11.19-33.57-11.19-33.57-17.25,10.72-21.92,21.45-21.92,21.45a229.53,229.53,0,0,0-15.85,40.09c-7.46,41-8.86,70.87-8.86,70.87-2.79,54.55,0,107.7,0,107.7l-1.86,9.33c-2.33,5.59-7.46,12.12-7.46,12.12-12.44-2.53-23.37-4.31-31.59-5.47l-.33,0c-8.35-1.19-13.86-1.77-15.28-1.9l-.36,0-14.45-1.87c-5-1.57-8.58-2.92-11.21-4-7.15-9.69-10.94-16.22-10.94-16.22-31-43.2-31.08-59.52-31.08-59.52-10.6-35.08-19.89-85.59-19.89-85.59-10.39-55.15-9.64-86-9.64-86-1.26-35-12.4-33.15-12.4-33.15-16.85,11.34-21.12,22.23-21.12,22.23A228.85,228.85,0,0,0,754,919.55c-6,41.27-6.29,71.14-6.29,71.14-.83,54.62,3.89,107.63,3.89,107.63l-1.53,9.39c-2,5.26-6.34,11.43-6.95,12.28l-1.52-.14h0c-26.92-4.4-46.3-5.5-46.3-5.5l0,.17c-10.1-1.47-15.46-2.5-15.46-2.5-76.93-21.33-91.89-64.69-91.89-64.69-.74-1.17-1.46-2.35-2.18-3.54-.5-.82-1-1.65-1.49-2.49-46.66-78.51-61.09-177.55-61.09-177.55-14-53.15-13.64-104.55-13.64-104.55-5.25-60.49-5.6-107-5.6-107C501.05,586.46,501.75,540,501.75,540a1003.45,1003.45,0,0,1,9.44-104.2l9.09-67.49c7-15,10.14-36,10.14-36L543,266.16l13.63-54.55c6.3-28.32,12.59-43.71,12.59-43.71l18.19-54.2c1.74-14-2.45-20.28-2.45-20.28-8-11.54-19.93-4.55-19.93-4.55l-11.89,12.94a197,197,0,0,0-19.93,21.68c-14,22.38-18.54,33.57-18.54,33.57l-24.47,54.55-8,18.88-16.08,33.57-10.14,36.72-11.19,50.7L435,397.64l-11.19,67.13c-5.6,39.52-9.79,88.47-9.79,88.47-3.85,60.5-4.55,105.6-4.55,105.6-1.75,59.45,2.1,106.66,2.1,106.66,2.8,38.11,8.74,85,8.74,85C428,900.12,435,931.94,435,931.94c4.11,22.24,10.3,48.49,13.73,62.57l-.09,0,1.87,7.26.3,1.17c0,.11.05.22.08.32.06.26.12.48.17.67s.06.26.09.36l.06.24,0,.12h0l10,38.82c1.75,14.68,0,30.77,0,30.77,0,11.89-5.59,18.53-5.59,18.53a210.13,210.13,0,0,1-39.16,4.2c-51,0-88.81-4.48-96.23-5.42h0a108.57,108.57,0,0,1-14.61-5.77l-9.46-5.84c-34.74-22.8-39.5-42.42-39.5-42.42-6,7.48-12.12,14.86-18.48,22-3,3.37-6,6.69-9.19,9.9-.76.78-3.41,2.8-4.47,4.35a2.75,2.75,0,0,0-.35.64l-.55.63c-1.15,1.31-2.3,2.62-3.49,3.89l-8.53,9.18L193.14,1108c-10.69,8.53-23.7,9.41-23.7,9.41,23.31-20,80.19-90,80.19-90,44.76-67.6,59.21-134.27,59.21-134.27,3-13.73,6.16-27.36,6.46-41.48.12-6.21.32-15.08-3.15-20.63-1.91-3-12.44-1.3-15.9-1.3-11.34,0-15.58,12.68-17.49,21.31-2.19,9.83-9.19,18.05-14.47,26.07Q257,888.16,249.45,899c-15.52,22.29-32,44-50.11,64.24C188,976,175.93,988.19,162.69,999a136.42,136.42,0,0,1-22.48,15.37c-.26.14-4.74,2.29-6.69,3-.93-2.56-1.85-5.13-2.78-7.69-.29-1-.56-2-.8-3h0l-2-11.13v-.06a64.73,64.73,0,0,1-.47-7.69l-.24-7.92c2.33-30.22,6-60.39,10.16-90.4,3.93-28.27,8.51-56.46,14.09-84.46,4.91-24.57,12.59-48.48,17.65-73,2.3-11.19,3.48-22.73,7.79-33.4,8.38-20.7,21.28-40,33.65-58.45Q216,632,221.65,624c2.94-4.16,6.92-7.52,9.74-11.78C234,608.32,235,601.59,234,597c-.88-3.85.13-2.72-2.84-3.29-3.37-.65-8.88,1.5-12.11,2.29-18.44,4.53-36.11,12.29-53,20.91,0,0-61.2,54.55-93,152.46,0,0-21,58.4-30.77,124.49,0,0-2,13.21-4.13,31.59l-6,47.91v0l-.14,1.13v.11a16,16,0,0,0,0,1.71l-.55,28v.35c-1.74,49.37,6.15,69.59,6.15,69.59,4,12.35,7,25.41,7,25.41,0,11.19,6.52,28,6.52,28,14.16,29.64,29,41.83,36.53,46.44,13.24,14.42,45,22.17,54.69,24.24h0l.17.06a14.48,14.48,0,0,0,2.51.49l.12,0c2.26.26,4.68.17,6.85.28l9.18.47,25.25,1.29L217,1202.5l31.38,1.6,27.52,1.4,19.06,1,6.11.32c46.86,0,98.61,3.14,98.61,3.14l15,1.4c31.93,1.91,57.1,4.3,72.65,6h0l20.68,3.45c61.89,5.6,76.89,4.9,76.89,4.9,78.1.69,92.27,5.78,92.69,5.93h0l24.25,2.33c87.65,11.66,113.76,21.92,113.76,21.92s57.34,10.72,71.33,21c0,0,106.77,42.89,140.8,83.45,0,0,12.59,10.26,26.11,23.78,0,0,20,18.18,27,31.24,0,0,29.84,22.84,37.3,35.9a191.83,191.83,0,0,1,26.29,34.72l-3.13,3.36c-8.93,7.2-4.46,15.78-4.46,15.78l14.73,11.25,10,10a159.58,159.58,0,0,1,21.2,24.48l0,0a110,110,0,0,1,11.06,20,0,0,0,0,1,0,0c4.56,13.19,5.22,26.55,5.15,34l-.14.08-.1,5.8v0l-.5,30.19c-1.19,36.86-23.33,44.27-23.33,44.27-45.64,20.93-46,32.94-46,32.94-4.46,22-13.38,25.73-13.38,25.73-15.1,16.48-5.15,66.92-5.15,66.92,7.55,48.73,42.9,74.92,42.9,74.92s44,14.41,50.9,70.46c0,0-1.6,23.18,9.61,58.34l.19,6.1c.14.88.27,1.77.36,2.66,5.82,28.74,3.79,39.28,3.79,39.28-.06.51-.12,1-.18,1.46a2.59,2.59,0,0,1,0,.48c0,.11,0,.21,0,.32-.21,1.8-.36,3.34-.46,4.67.22,1.77.48,3.53.7,5.24.14,1.1.34,2.18.56,3.26h0c.06.28.11.56.17.83,2,3.92,7.47,15.53,10.49,27,.48,2.58,1.06,5.14,1.59,7.56,0,.05,0,.1,0,.15h0c.13.6.25,1.18.37,1.76,1.37,6.73,3.06,13.4,5,20l.06.2q1.45,5.1,3.08,10.14c.54,1.69,1.09,3.36,1.66,5s.8,3.15,1.21,4.74a10.15,10.15,0,0,0,.54,1.61,2,2,0,0,0,.11.26,6.16,6.16,0,0,0,.5.87l2.45,4.51.09.18c.89,1.85,2.06,3.58,3.08,5.44A82,82,0,0,1,1255,2181a36.86,36.86,0,0,1,1.8,8c0,.34,0,.69,0,1a55.27,55.27,0,0,0,2.23,7.11,35.43,35.43,0,0,0,4,6.91,28,28,0,0,1,3.35,3.12,61.68,61.68,0,0,1,8.53,13.71c5.24,11.31,8.3,23.79,11.92,35.72a305.89,305.89,0,0,1,10.48,45.09,20.2,20.2,0,0,0,.47,3.5l1.38,4.61s5.49,11.33,5.49,24l1.71,7.2s5.49-5.49,7.55-18.53c0,0-1-9.95,1.72-40.15,0,0,5.49-64.85,43.58-20.59l4.69,8.35c3.32,8.47,2.17-1,2.17-1-1.26-27.54,3.09-56.75,3.09-56.75s1-36.72-4.46-73.09c0,0-5.83-30.2,9.61,0,0,0,7.2,29.85,3.43,73.09,0,0-3.43,47.53-3.43,68.52v7.83s-.35,19.05,7.55,34.14a117.76,117.76,0,0,0,5.66,31.91s0,.05,0,.07a13.24,13.24,0,0,1-.78,9.73,0,0,0,0,0,0,0,25.32,25.32,0,0,0-2.55,6c-23.85,72.52,4.41,151.45,4.41,151.45,10.75,19.21,26.53,0,26.53,0,12.12-73.31.78-130.77-3.13-147.17a1.6,1.6,0,0,0,.1-.23,15.69,15.69,0,0,1,.1-3.6c.25-2.33,0-4.65,0-7-.28-1.45-.55-2.41-.55-2.41-6.18-29.85,13.73-4.46,13.73-4.46,16.42,22,28.48,0,28.48,0,15.23-15.2,17-8.35,16.62-2.49a9.64,9.64,0,0,1-.89,6.78c0,.15,0,.3,0,.45l-3.17,2.72c-.4.57-.8,1.14-1.17,1.73-18.22,48.94-9.44,151.29-9.44,151.29,13.73,33.17,31.34.92,31.34.92,24.73-128.94,6.2-154.37,2-158.32l5.37-9.14c8.69-11.21,5.94-16.24,5.94-16.24-8-24.25-2.51-49.42-2.51-49.42,9.61-61.31,3.43-78.47,3.43-78.47-9.82-43,0-64.28,0-64.28,15.31-33.79,8.24-1,8,0v0l-2.29,6.18s-5.66,23.1,2.51,58.1c0,0,3.28,34.89-4.42,81.73a91.19,91.19,0,0,0-1.25,12.87c0,.8-.36,3.73.85,3.5.4-.08.78-.74,1.09-1.51h0l2.34-3.17,0-.05c2.84-2.95,5.89-9.2,6.36-10.16l.06-.13a71.53,71.53,0,0,0,3.11-7s22.59-48,44.21,2.4c0,0,6.87,22,0,38.78,0,0-7.2,13.38,7.21,0,0,0,3.09,1.37,11.67-31.23l1.65-19.36c3.14-20.41,7.27-38,7.27-38s8.18-42.58,34.06-79h0l0,0c.46-.36,4.35-3.62,9.51-12.12l.65-.75.14-.57a0,0,0,0,0,0,0c7.13-12.17,16.41-34.07,22.57-71.41,2.28-7.51,4.22-15.5,4.22-21v-4.8s7-26.28,7-48.38l-.18-9.61s-.72-46.71,9.18-61.4c1.54-4.38,4.23-8.48,6.69-12.33a22.57,22.57,0,0,1,2.43-3.17l.09-.1a9.44,9.44,0,0,1,4.32-2.85c38.38-28.23,50.45-61.47,51.84-65.6,0-.06,0-.13.07-.2s0-.15.07-.23c2-5.6,10.52-33.08,6.36-79.46,0,0-1.64-29.78-3.27-45.14-.22-.7-.46-1.41-.74-2.1-.08-.21-.17-.41-.26-.61s-.13-.3-.19-.44-.23-.46-.35-.69-.26-.48-.4-.72a13.8,13.8,0,0,0-.92-1.34h0c-.18-.23-.37-.47-.57-.69a4.45,4.45,0,0,1-1.26-1c-80.2-35.8-82.85-81.88-82.85-81.88s-9.51-34.17-.73-57.34l0,0q1.21-2.77,2.46-5.4l.09-.18h0c18.74-39.27,44.45-56.52,44.45-56.52,7.9-8.42-1.56-22.89-6.4-29.18-.27.33-.54.65-.8,1a195.62,195.62,0,0,1,24.63-34.92c7.12-13.66,36.77-38.22,36.77-38.22,6.64-13.64,26.45-33.05,26.45-33.05,13.31-14.37,25.79-25.37,25.79-25.37,33.25-42.87,140.86-91,140.86-91,13.91-11,72.2-24.29,72.2-24.29s26.32-11.53,115.59-26.91l24.73-3.35h0c.43-.17,14.74-5.94,94.66-9.73,0,0,15.38.13,78.52-8l21-4.35h.05c15.85-2.32,41.53-5.76,74.14-9l15.34-2s52.85-5.26,100.82-7.11l6.24-.56,19.48-1.74,28.12-2.52,32.06-2.88,31.28-2.8,25.81-2.32,9.37-.84c2.21-.2,4.7-.21,7-.56a14.53,14.53,0,0,0,2.68-.62l.24-.09c9.85-2.52,42-11.69,55-27h0c7.5-5,22.23-18.07,35.56-49,0,0,6-17.44,5.58-28.9,0,0,2.59-13.48,6.16-26.28C2813.44,1016.9,2820.72,995.89,2817,945.42Zm-1571.3,925.79c-6.17,7.9-16.12,13-16.12,13-16.82,5.84-21.62,1.49-21.62,1.49-56.28-33.86-70.69-81.78-70.69-81.78-17.5-55.77,11.67-78.93,11.67-78.93,34.65-9.61,56.62,39.12,56.62,39.12l11.32,22c2.4,13.73,25.39,53.52,25.39,53.52C1259.42,1863.63,1245.69,1871.21,1245.69,1871.21Zm90,132.38c0,.29-.11.59-.17.89-.42,2.13-.84,4.25-1.45,6.33.45,6.42.57,19.9-6,21.12,0,0-17.16,11-16.24,27.45l2.74,27.68s2.75,19.67-7.09,3l-18.53-31.8s-3-11.66-14.07-11.66v-2.75a189.38,189.38,0,0,0,.06-42,1.18,1.18,0,0,1,.18-1.22c2.4-3.2,4.7-6.46,7-9.69.19-.34.38-.69.58-1,.48-.84.93-1.72,1.39-2.59.19-.75.5-1.49.71-2.08.79-2.18,1.45-4.36,2.16-6.57,1.5-4.65,4-9,6.22-13.38.29-1.23.48-2.5.7-3.76a85.93,85.93,0,0,0,.06-9.22s3.62-11.21.1-45.75c0,0-.55-10.29-11.53-16,0,0-8-9.15,7.32-4.81,0,0,28.14,17.82,30.42,78.46,0,0-.68,17.6,7.32,0,0,0,11.67-25.64,13.5,0C1341.09,1964.2,1345.78,1982,1335.7,2003.59Zm102.93-505.67a18.67,18.67,0,0,1-2,4.54l-2.88,16.12-4.71,16.88-1.58,4.17-3.62-.67c-3.67-.71-3.09,4.37-3.09,4.37l4.38,1.5c.5,7.17-3.75,8.84-3.75,8.84,0,10.46-4.59,15-4.59,15l-4.83,7.08.42,4.75a59.87,59.87,0,0,0-2.21,10.13l-3.67,7.62c1.59,5.79-5,18.75-5,18.75l-2-.67a5.94,5.94,0,0,1-3.08,3.88l.66,5,1.92.67a26.7,26.7,0,0,1-2.75,8.91,69.75,69.75,0,0,1-6.83,14.71l-.3,7.42-.66,4.17,2.16,5.79c-1.7,3.46-6.37,9.54-6.37,9.54l-.59,6.29-1.29,4-.58,4.38-3.92,5.75-1.16,5.41c-2.17,11.67-9.67,11-9.67,11l-3.71-1.54a10,10,0,0,0-.71-3.71l-3.46-6c-.95-6.68-2.5-14-2.5-14l-2.24-7.08-2.3-.37.34-7.34,3.2-.91a8.56,8.56,0,0,0-7.29-6.42l.63-7.5-.58-4.33,1.16-.63c3.29-1.58,0-3.62,0-3.62l-.92-.3c-1.7-2.54-5.41-20-5.41-20-1.75-3.08-5.17-9-5.17-9l-3.25-16.25a9.71,9.71,0,0,0-.29-1.25l-5-10.25-2.33-3.33a5.09,5.09,0,0,0,2.95-1.08c4.63-3.42-1.24-4.67-1.24-4.67a15.63,15.63,0,0,0-3.71.21l-.59-2,.34-8.3-2.21-5.79-.33-3.08c-2.92-4.29-5.05-.92-5.05-.92l-6.08,22.21-3.17,3.13-3.33,5.29-3,7.87c1.71,14.09-5.5,15.92-5.5,15.92l-.21,3.54-1.87,4-.05,7.33c.25,2.13-.62,2.34-.62,2.34l-1.75,2.37-1.21,3.5,1,.92-1.71,6-5,16-2.25,9.58c-3.08,8.38.33,12.67.33,12.67-5,1.46-5.21,5-5.21,5l1,1.08a38.06,38.06,0,0,1-1.92,5l-.83,6.13-.67,4.5a2.52,2.52,0,0,1-1.41,1.46l-4.13,3.41-.29-1.41a16.69,16.69,0,0,1-6.25-8.88l-5-15.92-3.5-16.33c-.25-2.83-5.08-11.25-5.08-11.25l4.79-9c.42-.88-2.83-3.46-2.83-3.46l-.71,1.58-5.5-.7-1.21-4.25-1.33-9.88-.79-2a1.84,1.84,0,0,1-.09-1.91l2.21-7-1-2.42-3.75-.21c-1.67,0-1.71-.92-1.71-.92l-5.16-12.58c-1-1.54-.17-2.42-.17-2.42l.79-2-.66-5.58-3.26.42a1.08,1.08,0,0,1-1.37-.75l-1.08-3.71-3.17-5.21-5.46-14-2.66-2.79a2.41,2.41,0,0,1-1.05-1.75l-3-10.77-1.21-1.73c-1-1-.42-1.67-.42-1.67l1-3.75c.83-3.46-5.75-7.71-5.75-7.71l-4.84-16.87-7.33-10.59-.33-1a16.48,16.48,0,0,1,1.25-2.87l3.95-4.83s3.38.41,5.09-2a33.74,33.74,0,0,1,7.25-4.21l1.71-.83,4.21-3a12.81,12.81,0,0,1,5.87,8.83l4.33,17.71,1.42,3.92-1.75,1a12.47,12.47,0,0,1-4.42,1.29l-2.91-.34a6.51,6.51,0,0,0,5.33,5.84,9.72,9.72,0,0,0,3.75,0l1.75-.13a93.35,93.35,0,0,0,3.54,11.54l2.71,4.13.58,3.87s3.13,4.25,3.34,5.75a2.63,2.63,0,0,1-.8,2.84,9,9,0,0,1-3.12,1.62l1,2.13.16.29a7,7,0,0,1-1.16,6.87l3.12,2.5,4.54,1.17.34,5.29,5.16,5.38c.25,1.33,3.13,10.62,3.13,10.62l-1.83,1.88c6.45,3.5,9.2,16.25,9.2,16.25l2,7.25,1.5,6.58,2.8,13.62c3.08,11.8,6.41,8.5,6.41,8.5,1.63.46,4.25-6.16,4.25-6.16l4.38-4.5,1.91-3c-4.12-4.17-2-7-2-7l7.84-12.88L1290,1610l5.21-15.17.29-5.12,1.92-5.5.33-11.92c3.92-3.79,3.5-10.29,3.5-10.29l2.54-5.46-.33-6.33,2.5-11.67,2.67-16.83c4.45-3.3,5.45-6.79,5.45-6.79l-1.37-3.55,1.67-3.75a13,13,0,0,0,9.25-4l5.83,1.25,2.5,4.59c1.25.91,3.92,3.46,3.92,3.46,2,4,2.5,15.79,2.5,15.79l-4.09,1.91.17,3.42c.17,5.83,6.58,4.88,6.58,4.88,1.42,18.16,8,25.24,8,25.24.59,3.92.29,5.17.29,5.17l-2.33,1.79,3.63,4.29a4.73,4.73,0,0,1-4.34,3.09c1.46,5.66,6.5,5.16,6.5,5.16a46,46,0,0,1,3.67,13l.54,6.25h-2.21l1.54,3.38,2.84,3.62.91,12,4.59,14.3,2.41,10c2.8,3.62,5.55,3.41,5.55,3.41.54,9.34,2.25-.41,2.25-.41l6.41-15.25.34-3,7.25-11.63-2.92-3.54c0-3,3.92-5,3.92-5l6.7-27.5,2.84-4.29c.46-5.08,2.62-16.42,2.62-16.42l4-15.91c2.92-.38,4.88-8.13,4.88-8.13l-2.85-3.79L1411,1525l.92-5.91-.34-6.46,3.59-3.25,4.83-6.17,12.42-6.08,2-3.5C1441,1493.21,1438.63,1497.92,1438.63,1497.92Zm167.55,620.37s-5,13.72-9.44,0c0,0-2.4-13.73-6.52,1,0,0-4.46,24-6.18-.68,0,0,.35-8.92-7.2-25.05,0,0-4.81-12.93-11-2.4,0,0-9.27,25.73-13-.69,0,0-2.41-13.73-12.36-21.62V2062a451.6,451.6,0,0,0,0-52.16s1.38-36.38,3.09-59c0,0,2.06-12.7,5.84,0l2.4,15.78s5.14,18.87,10,1c0,0,5.15-.91,10-37.75,0,0,4.46-28.82,7.21,0,0,0-2.06,20.59,17.5,44.61,0,0,7.08,5.82,7.59,9.51a.14.14,0,0,0,0,.07,23.51,23.51,0,0,0,2.78,9.15c.92,1.62,2.14,3,3,4.66,4.49,4,8.08,11.79,5.51,27.06,0,0-5.15,20.24,3.78,45.64C1619.05,2070.59,1625.91,2090.83,1606.18,2118.29Zm12.44-439.54-12.18,12.13-3.38,1.81-24.44,15.75-3.31,1.12-8.25,2.69c-7.87,3.13-7.75,1.94-7.75,1.94l-3-.75c-4.19,2.56-10.12,2.5-10.12,2.5-2.75-.82-21.88-.38-21.88-.38l-4.93-1.25-18.69-1.25-10.31-5.75-4.13.94,1.81,1.5-9.25-1.25-12-8.81-8.31-1.13-11-7a15.86,15.86,0,0,1-3.31-3.56c-.25-3.56,2.93-8.71,2.93-8.71a38.34,38.34,0,0,1,6.8-9c3.2-3.62,8.7-4.75,8.7-4.75l2.38,11.84c6.33,2.12,5.87,7,5.87,7l3.59-.71,3.25,2.21,2.58,3.66,10.63,3,10.58,4.75,21.37,4.46c.42.67,5.8,3.33,5.8,3.33,3,.63,3-3.08,3-3.08l2.41-.33,19.42,1.33,6-3.21,3.54,1.34,5.84-1.25,3.79-1.34c12.58-2.75,15.17-12,15.17-12l5.75-6c1.66-2,2.25-7.17,2.25-7.17,7.12,0,6.16-3.87,6.16-3.87l-.66-3.13-.3-3.87,2.55-3,4.87-14.5h1.54c1.67-8.29-5-21.29-5-21.29l-4.58-.33-11.63-7.05-13.95-5.45-3.13-3.46c-5-5-7.79-1-7.79-1l-1,1.68-21.37-1-4.84-5.75-3.71,4.84-14.37-3c-17-3.55-20-6.75-20-6.75l.33-3.38-5.41-2.33-2.67.62a22.62,22.62,0,0,1-11.17-16.33l1.29-.29-3.16-3.54-1-10.09v-1.75l2-6.37,2-3.71,1.75-4.63c11-5,8.79-12.87,8.79-12.87,6-5.21,19.92-15.08,19.92-15.08l7.16-4.29,12-6.13,20.84-6.75,13.46-1.67,4.87-1.91,15.83,1.87,7-.29,4.46,1.79,7.75,1.83a31.83,31.83,0,0,1,4.79,1.63c4.92,2,2.92,5.75,2.92,5.75l-3.21,1.25c-6.69,7.44-16.81,8.63-16.81,8.63-2.38-.76-11.44-8-11.44-8l-4.81-.63-12.63-2.5-15.87.56c-12.34,7.13-26.31,13.57-26.31,13.57l-7.32,5.87-3.5,3.94-6.68,11.87-6.13,4.19-1.19,3.9,4.13,2.16c-1.63,5.44,1.06,8.63,1.06,8.63l-6.13,3.12,1.57,3.56,3.43,1.26,5.57.87,6.19,5.31,12.81,5.63,3.37,3.25,11-1.13,9.5,1.07.56,2.06c12.57-2.06,11.57-.94,11.57-.94l12.56,2.69c.75,7.75,3.87,7.43,3.87,7.43l1.38-.37,6.88-4.56,8.62.62,4.25-.19c7.13-1.18,12.87,5.32,12.87,5.32l6.32,5.56,3.62-.44c2.32,0,13.38,14.19,13.38,14.19l1.81,15.81c1.44,5.38-1.31,12.13-1.31,12.13l-6.5-.31-2.06.87.62,4.25c6.62,3.31,2.12,14.06,2.12,14.06C1620.19,1674.69,1618.62,1678.75,1618.62,1678.75Zm52.07,75.45,1.16-7.5c2-9.14,20.48-85.61,61.45-2,0,0,6.58,22.16,4.93,32.27,0,.1,0,.2,0,.3-4.84,28.74-19.51,92-57.71,120.37l-2.57-.35c-8.41-.34-11-2-11-2-23.16-14-34-28.94-38.93-38.34-.63-17.2,4.61-19.66,4.61-19.66l3.37-4.46S1662.63,1798.47,1670.69,1754.2Z"/><path class="cls-2" d="M1565.09,2335.65c-.55.2-1,7.7-1.12,8.57q-.73,5.3-1.44,10.59-1.42,10.59-2.85,21.18s-16.06,142.41-44.92,204.52a93.91,93.91,0,0,1-18,26.57,55.67,55.67,0,0,1-13.18,10.1c-5.72,3.06-12.46,6.21-18.68,2.89a50.62,50.62,0,0,1-16.1-14.16s-6.91-14.42-23.33,0c-2.78,2.43-5,5.26-8.09,7.48-5.69,4.17-12.62,7.18-19.81,6.5a24,24,0,0,1-11.07-4.12,35.45,35.45,0,0,1-5.67-4.85c-.56-.58-1.14-1.17-1.69-1.8a.24.24,0,0,1-.06-.08l-1.06-1.3,0-.06-3.57-4.42c-3.16-3.12-4.8-7.83-6.63-11.78a286.26,286.26,0,0,1-11.63-29.5c-34.77-104.32-44.27-188.05-44.27-188.05-.68-7.89-3.43-21.27-3.43-21.27,8.92-9.27,11.33-23.34,11.33-23.34,3.43-13.72,3.08-35,3.08-35,3.44-72.18,36.46-18.32,42.34-8.11a5,5,0,0,1,1.51,5.44c2.37,9.42,7.07,28.95,6.43,33l-2.9,5.47c-.21.5-.45,1-.69,1.58q-1.56,3.63-3.27,7.2c-1.48,3.06-3,6.09-4.81,9a20.06,20.06,0,0,0-3.8,4.52,8.54,8.54,0,0,0-.5,1.23h0a6.83,6.83,0,0,0-.3,2.41c-2.64,21-20.32,172.69,17.47,190.78,0,0,42.13,11.81,76.31,11.78.16,0,.31.05.48.05,7.25.09,14.53,1,21.36,0a34.16,34.16,0,0,0,10.28-1.85l1.18-.44.11,0c.39-.15.77-.32,1.15-.49l1.17-.56c10.31-5.17,16.79-15.72,21.07-27.91l.09-.26c.48-1.37.92-2.75,1.35-4.16a.64.64,0,0,0,0-.07c.23-.76.45-1.52.66-2.29.35-1.23.67-2.48,1-3.73.21-.82.4-1.64.59-2.46.11-.48.22-1,.32-1.44.22-1,.42-1.93.61-2.89q.6-2.91,1.09-5.79c.16-.95.32-1.89.47-2.83.38-2.37.72-4.71,1-7,.12-.85.23-1.69.34-2.52,0-.4.1-.79.16-1.18.47-3.66.89-7.14,1.3-10.32,2.59-20.26,4.19-40.86,7.75-60.95,1.59-9,2.33-18.17,3.1-27.28.41-4.83.74-11.11-1-16.17-.72-22.57-8.48-30.75-8.48-30.75-8.29-11.67-8.63-27.48-8.63-27.48a112.56,112.56,0,0,1,14.41-29.2s14.41-44.09,31.57,0c0,0,5.49,24.19-3.43,42.38-1.1,2.23-3.2,4.85-2.83,7.51C1549.86,2345.05,1562.43,2336.64,1565.09,2335.65Z"/></g></svg>